<?xml version="1.0" encoding="UTF-8" standalone="no"?>
<svg
   xmlns:dc="http://purl.org/dc/elements/1.1/"
   xmlns:cc="http://creativecommons.org/ns#"
   xmlns:rdf="http://www.w3.org/1999/02/22-rdf-syntax-ns#"
   xmlns:svg="http://www.w3.org/2000/svg"
   xmlns="http://www.w3.org/2000/svg"
   width="192"
   height="92"
   viewBox="0 0 50.799999 24.341667"
   version="1.1"
   id="svg8">
  <defs
     id="defs2" />
  <metadata
     id="metadata5">
    <rdf:RDF>
      <cc:Work
         rdf:about="">
        <dc:format>image/svg+xml</dc:format>
        <dc:type
           rdf:resource="http://purl.org/dc/dcmitype/StillImage" />
        <dc:title></dc:title>
      </cc:Work>
    </rdf:RDF>
  </metadata>
  <g
     id="layer1"
     transform="matrix(0.92124973,0,0,0.9210751,-3.6669689,-3.1539378)"
     style="stroke-width:1.08558;fill:#ffffff;stroke:#ffffff">
    <g
       id="g889"
       transform="matrix(1.1973044,0,0,1.1973044,-44.228541,-15.819512)"
       style="stroke-width:0.90669;fill:#ffffff;stroke:#ffffff">
      <path
         style="fill:#ffffff;stroke:#ffffff;stroke-width:0.853185;stroke-linecap:round;stroke-linejoin:round;paint-order:markers stroke fill;stop-color:#000000"
         id="path841"
         d="m 64.736927,49.097117 -3.394716,-2.323511 -3.449594,2.241228 1.160765,-3.946571 -3.197517,-2.588182 4.112109,-0.115604 1.473419,-3.840811 1.380658,3.875123 4.10814,0.21443 -3.258815,2.510562 z"
         transform="matrix(0.15986236,0,0,0.15895317,48.838709,30.207197)" />
      <path
         style="fill:#ffffff;stroke:#ffffff;stroke-width:0.853185;stroke-linecap:round;stroke-linejoin:round;paint-order:markers stroke fill;stop-color:#000000"
         id="path841-9"
         d="m 64.736927,49.097117 -3.394716,-2.323511 -3.449594,2.241228 1.160765,-3.946571 -3.197517,-2.588182 4.112109,-0.115604 1.473419,-3.840811 1.380658,3.875123 4.10814,0.21443 -3.258815,2.510562 z"
         transform="matrix(0.15986235,0,0,0.15895317,51.127455,30.22836)" />
      <path
         style="fill:#ffffff;stroke:#ffffff;stroke-width:0.853185;stroke-linecap:round;stroke-linejoin:round;paint-order:markers stroke fill;stop-color:#000000"
         id="path841-93"
         d="m 64.736927,49.097117 -3.394716,-2.323511 -3.449594,2.241228 1.160765,-3.946571 -3.197517,-2.588182 4.112109,-0.115604 1.473419,-3.840811 1.380658,3.875123 4.10814,0.21443 -3.258815,2.510562 z"
         transform="matrix(0.15986235,0,0,0.15895317,53.445176,30.19965)" />
      <path
         style="fill:#ffffff;stroke:#ffffff;stroke-width:0.853185;stroke-linecap:round;stroke-linejoin:round;paint-order:markers stroke fill;stop-color:#000000"
         id="path841-9-7"
         d="m 64.736927,49.097117 -3.394716,-2.323511 -3.449594,2.241228 1.160765,-3.946571 -3.197517,-2.588182 4.112109,-0.115604 1.473419,-3.840811 1.380658,3.875123 4.10814,0.21443 -3.258815,2.510562 z"
         transform="matrix(0.15986235,0,0,0.15895317,55.733921,30.220813)" />
      <path
         style="fill:#ffffff;stroke:#ffffff;stroke-width:0.853185;stroke-linecap:round;stroke-linejoin:round;paint-order:markers stroke fill;stop-color:#000000"
         id="path841-9-5"
         d="m 64.736927,49.097117 -3.394716,-2.323511 -3.449594,2.241228 1.160765,-3.946571 -3.197517,-2.588182 4.112109,-0.115604 1.473419,-3.840811 1.380658,3.875123 4.10814,0.21443 -3.258815,2.510562 z"
         transform="matrix(0.15986235,0,0,0.15895317,58.022666,30.214005)" />
    </g>
    <text
       xml:space="preserve"
       style="font-style:normal;font-variant:normal;font-weight:normal;font-stretch:normal;font-size:19.75560000000000116px;line-height:1.25;font-family:'Academy Engraved LET';-inkscape-font-specification:'Academy Engraved LET, Normal';font-variant-ligatures:normal;font-variant-caps:normal;font-variant-numeric:normal;font-variant-east-asian:normal;stroke:#ffffff;stroke-width:0.108558;stroke-miterlimit:4;stroke-dasharray:none;fill:#ffffff"
       x="4.2347093"
       y="16.736839"
       id="text835"><tspan
         id="tspan833"
         x="4.2347093"
         y="16.736839"
         style="font-style:normal;font-variant:normal;font-weight:normal;font-stretch:normal;font-size:19.75560000000000116px;font-family:'Academy Engraved LET';-inkscape-font-specification:'Academy Engraved LET, Normal';font-variant-ligatures:normal;font-variant-caps:normal;font-variant-numeric:normal;font-variant-east-asian:normal;stroke:#ffffff;stroke-width:0.108558;stroke-miterlimit:4;stroke-dasharray:none;fill:#ffffff">Jacana</tspan></text>
    <text
       xml:space="preserve"
       style="font-style:normal;font-variant:normal;font-weight:normal;font-stretch:normal;font-size:6.34999999999999964px;line-height:1.25;font-family:Athelas;-inkscape-font-specification:'Athelas, Normal';font-variant-ligatures:normal;font-variant-caps:normal;font-variant-numeric:normal;font-variant-east-asian:normal;stroke-width:0.287227;fill:#ffffff;stroke:#ffffff"
       x="20.93646"
       y="25.448971"
       id="text839"><tspan
         id="tspan837"
         x="20.93646"
         y="25.448971"
         style="font-style:normal;font-variant:normal;font-weight:normal;font-stretch:normal;font-size:6.34999999999999964px;font-family:Athelas;-inkscape-font-specification:'Athelas, Normal';font-variant-ligatures:normal;font-variant-caps:normal;font-variant-numeric:normal;font-variant-east-asian:normal;stroke-width:0.287227;fill:#ffffff;stroke:#ffffff">HOTEL</tspan></text>
  </g>
</svg>
